<?xml version="1.0" encoding="UTF-8"?>
<svg id="Layer_1" data-name="Layer 1" xmlns="http://www.w3.org/2000/svg" viewBox="0 0 342.94 342.94">
  <path d="M242.89,282.5c-43.67,36.82-114.04,33.57-136.39,16.92-2.12-1.57-2.68-4.43-.78-6.25,5.95-5.71,18.68-18.05,33.2-32.93,7.76,2.2,25.75,2.05,40.72-.83,8.57-1.65,24.89-9.29,32.54-14.4.87-.58.3-1.93-.72-1.7-7.93,1.79-23.78,6.92-34.25,7.71s-21.77.05-27.34-1.35c16.26-17.24,35.83-39.87,46.51-54.94,6.09.79,14.53,1.08,23.14-.05,13.45-1.76,21.57-8.26,26.49-13.5.61-.65.08-1.81-.69-1.39-5.86,3.25-14.22,6.48-22,7.81-6.23,1.06-16.33,1.53-21.92.45.91-1.65,4.04-8.09,4.68-9.56,11.36-26.22,18.2-47.13,21.83-58.71.3-.96-.98-1.6-1.57-.78-9.33,13.01-35.06,43.84-59.36,71.09-1.8-5.11-6.81-13.9-8.4-21.35-3.35-15.67-2.19-27.95-1.26-37.21.1-.99-1.29-1.31-1.64-.38-2.38,6.47-5.55,17.19-4.64,26.58,1.3,13.32,6.81,29.68,10.16,38.7-1.04,1.12-2.07,2.2-3.09,3.26-12.87,13.35-30.7,26.63-47.11,37.59-1.95-7.46-4.24-17.48-6.42-30.01-4.01-23.11-2-51.85-.75-64.7.11-1.12-1.45-1.5-1.86-.45-3.37,8.82-8.99,25.88-10.48,44.89-1.43,18.39,3.95,45.06,7.02,58.36-12.2,7.68-22.4,13.47-27.32,16.2-1.85,1.03-4.18.57-5.49-1.09-8.95-11.35-39.4-55.35-16.34-103.56,26.8-56.03,121.9-68.21,161.24-82.83,28.48-10.58,42.3-19.89,47.75-24.22,1.39-1.1,3.46-.34,3.83,1.39,5.86,27.22,37.51,183.37-19.29,231.25Z" style="fill: #9ba37a;"/>
  <line x1="111" y1="237.28" x2="111" y2="237.27" style="fill: none; stroke: #000; stroke-miterlimit: 10;"/>
</svg>