<svg width="113" height="117" viewBox="0 0 113 117" fill="none" xmlns="http://www.w3.org/2000/svg">
<path d="M7 29C7 17.9543 15.9543 9 27 9H87C98.0457 9 107 17.9543 107 29V89C107 100.046 98.0457 109 87 109H27C15.9543 109 7 100.046 7 89V29Z" fill="#F9FAF4"/>
<path d="M41 33.3434H47.711V36.0244C51.4851 33.6786 54.6729 32 60.2115 32C71.9565 32 80.4291 40.885 80.0938 51.9471C79.8429 56.8077 78.2475 61.8375 74.809 65.4422C70.1949 70.3874 64.3239 72.3136 58.7853 71.8124C54.9267 71.4772 51.1526 69.9677 47.711 66.8673V85.4533L42.677 86.7092H41V33.3434ZM59.7915 34.8501C54.0021 34.8501 51.4034 36.4412 47.711 39.3757C47.8802 48.5958 47.711 51.9471 47.711 63.7667C47.711 63.7667 49.8081 65.9464 53.2467 67.2868C58.3623 69.2975 63.3118 68.7963 66.2487 67.2868C70.7782 64.941 74.386 60.8321 74.386 51.7808C74.386 43.231 68.2612 34.8501 59.7886 34.8501H59.7915Z" fill="#1F211A"/>
</svg>
