<?xml version="1.0" encoding="UTF-8"?>
<svg id="Layer_1" data-name="Layer 1" xmlns="http://www.w3.org/2000/svg" viewBox="0 0 1097.11 258.04">
  <path d="M7.52,66.24h23.01v9.2c12.94-8.05,23.87-13.81,42.86-13.81,40.27,0,69.32,30.49,68.17,68.45-.86,16.68-6.33,33.94-18.12,46.31-15.82,16.97-35.95,23.58-54.94,21.86-13.23-1.15-26.17-6.33-37.97-16.97v63.78l-17.26,4.31h-5.75V66.24ZM71.95,71.41c-19.85,0-28.76,5.46-41.42,15.53.58,31.64,0,43.14,0,83.7,0,0,7.19,7.48,18.98,12.08,17.54,6.9,34.51,5.18,44.58,0,15.53-8.05,27.9-22.15,27.9-53.21,0-29.34-21-58.1-50.05-58.1Z" style="fill: #f5f1e9;"/>
  <path d="M155.28,130.95c0-38.25,29.62-69.32,65.86-69.32s65.58,29.34,65.58,75.07h-108.14v4.6c0,15.82,11.79,33.94,29.34,41.42,25.6,10.64,56.37,6.04,70.47-10.35l8.63,1.73c-11.51,17.54-35.38,29.05-66.15,25.31-36.24-4.31-65.58-29.91-65.58-68.45ZM259.71,125.62c2.56-30.34-9.81-53.35-38.57-53.35s-40.84,22.72-46.28,53.35h84.85Z" style="fill: #f5f1e9;"/>
  <path d="M346.44,80.9l-14.09,6.33v108.43h-23.01v-125.11l17.26-4.31h5.75v11.51l7.48-3.45c23.59-10.64,54.07-20.42,70.75-1.73-6.9,5.18-8.05,5.75-15.82,11.22-9.2-11.5-33.94-9.2-48.32-2.88Z" style="fill: #f5f1e9;"/>
  <path d="M400.93,130.95c0-38.25,29.62-69.32,65.86-69.32s65.58,29.34,65.58,75.07h-108.14v4.6c0,15.82,11.79,33.94,29.34,41.42,25.6,10.64,56.37,6.04,70.47-10.35l8.63,1.73c-11.51,17.54-35.38,29.05-66.15,25.31-36.24-4.31-65.58-29.91-65.58-68.45ZM509.36,124.62c-1.44-29.34-13.81-52.35-42.57-52.35s-40.84,22.72-42.28,52.35h84.85Z" style="fill: #f5f1e9;"/>
  <path d="M639.32,82.63c-9.2-11.51-32.5-8.05-46.88-1.73l-14.09,6.33v108.43h-23.01v-125.11l17.26-4.31h5.75v11.51l7.48-3.45c23.59-10.64,54.07-20.42,70.75-1.73,8.05,9.2,11.51,22.15,11.51,36.82v86.29h-23.01v-80.53c0-11.51,0-25.31-5.75-32.5Z" style="fill: #f5f1e9;"/>
  <path d="M780.61,82.63c-9.2-11.51-32.5-8.05-46.88-1.73l-14.09,6.33v108.43h-23.01v-125.11l17.26-4.31h5.75v11.51l7.48-3.45c23.59-10.64,54.07-20.42,70.75-1.73,8.05,9.2,11.51,22.15,11.51,36.82v86.29h-23.01v-80.53c0-11.51,0-25.31-5.75-32.5Z" style="fill: #f5f1e9;"/>
  <path d="M852.68,10.73c6.33,0,11.22,4.89,11.22,11.22s-4.89,11.79-11.22,11.79-11.79-5.18-11.79-11.79,5.18-11.22,11.79-11.22ZM858.14,66.24h5.75v129.43h-23.01v-125.11l17.26-4.31Z" style="fill: #f5f1e9;"/>
  <path d="M887.97,130.87c0-38.25,29.63-69.32,65.86-69.32,16.39,0,31.35,6.33,42.86,16.68v-7.19l17.26-4.89h5.75v129.43h-23.01v-12.08c-11.5,10.36-26.46,16.68-42.86,16.68-36.24,0-65.86-30.78-65.86-69.32ZM953.84,189.55c30.78,0,42.86-26.17,42.86-58.96s-12.08-58.39-42.86-58.39-42.86,26.17-42.86,58.68,12.08,58.67,42.86,58.67Z" style="fill: #f5f1e9;"/>
  <path d="M1056.65,195.66V14.58l17.26-3.85h5.75v184.94h-23.01Z" style="fill: #f5f1e9;"/>
</svg>